<svg width="144" height="44" viewBox="0 0 144 44" fill="none" xmlns="http://www.w3.org/2000/svg">
<path d="M19.5314 22.1338L14.1405 31.3667L8.7496 22.1338H19.5314ZM20.9756 21.3086H7.29956L14.1405 32.9998L20.9756 21.3086Z" fill="#263238"/>
<path d="M28.9042 10.6504L34.2951 19.8833H23.5132L28.9042 10.6504ZM28.9042 9L22.0632 20.6912H35.7451L28.9042 9Z" fill="#263238"/>
<path d="M0.745117 9L6.48102 19.3409L12.749 9.25966L0.745117 9Z" fill="#3787FF"/>
<path d="M14.1406 9.90625L20.1572 20.1894H8.1124L14.1406 9.90625Z" fill="#3787FF"/>
<path d="M21.7066 22.4336L27.729 32.9995H15.3977L21.5195 22.4336H21.7066Z" fill="#3787FF"/>
<path d="M23.0104 21.7939L28.9042 32.1983L34.8798 21.7939H23.0104Z" fill="#3787FF"/>
<path d="M43.3026 29H40.4901L45.6108 14.4545H48.8636L53.9915 29H51.179L47.294 17.4375H47.1804L43.3026 29ZM43.3949 23.2969H51.0653V25.4134H43.3949V23.2969ZM64.1708 18.0909L60.2859 29H57.445L53.56 18.0909H56.3015L58.8086 26.1946H58.9222L61.4364 18.0909H64.1708ZM70.4084 29.2131C69.3146 29.2131 68.37 28.9858 67.5746 28.5312C66.7839 28.072 66.1754 27.4233 65.7493 26.5852C65.3232 25.7424 65.1101 24.7505 65.1101 23.6094C65.1101 22.4872 65.3232 21.5024 65.7493 20.6548C66.1802 19.8026 66.7815 19.1397 67.5533 18.6662C68.325 18.188 69.2318 17.9489 70.2734 17.9489C70.9458 17.9489 71.5803 18.0578 72.1768 18.2756C72.7782 18.4886 73.3085 18.8201 73.7678 19.2699C74.2318 19.7197 74.5964 20.2926 74.8615 20.9886C75.1267 21.6799 75.2592 22.5038 75.2592 23.4602V24.2486H66.3175V22.5156H72.7947C72.79 22.0232 72.6835 21.5852 72.4751 21.2017C72.2668 20.8134 71.9756 20.508 71.6016 20.2855C71.2322 20.063 70.8014 19.9517 70.3089 19.9517C69.7834 19.9517 69.3217 20.0795 68.924 20.3352C68.5263 20.5862 68.2161 20.9176 67.9936 21.3295C67.7758 21.7367 67.6645 22.1842 67.6598 22.6719V24.1847C67.6598 24.8191 67.7758 25.3636 68.0078 25.8182C68.2398 26.268 68.5642 26.6136 68.9808 26.8551C69.3975 27.0919 69.8852 27.2102 70.4439 27.2102C70.8179 27.2102 71.1565 27.1581 71.4595 27.054C71.7625 26.9451 72.0253 26.7865 72.2479 26.5781C72.4704 26.3698 72.6385 26.1117 72.7521 25.804L75.1527 26.0739C75.0012 26.7083 74.7124 27.2623 74.2862 27.7358C73.8648 28.2045 73.325 28.5691 72.6669 28.8295C72.0088 29.0852 71.2559 29.2131 70.4084 29.2131ZM80.0053 22.608V29H77.4343V18.0909H79.8917V19.9446H80.0195C80.2705 19.3338 80.6706 18.8485 81.2198 18.4886C81.7738 18.1288 82.458 17.9489 83.2724 17.9489C84.0252 17.9489 84.681 18.1098 85.2397 18.4318C85.8031 18.7538 86.2388 19.2202 86.5465 19.831C86.859 20.4418 87.0129 21.1828 87.0082 22.054V29H84.4371V22.4517C84.4371 21.7225 84.2478 21.152 83.869 20.7401C83.4949 20.3281 82.9764 20.1222 82.3136 20.1222C81.8638 20.1222 81.4637 20.2216 81.1133 20.4205C80.7676 20.6146 80.4954 20.8963 80.2965 21.2656C80.1024 21.6349 80.0053 22.0824 80.0053 22.608ZM89.6218 29V18.0909H92.1928V29H89.6218ZM90.9144 16.5426C90.5072 16.5426 90.1568 16.4077 89.8633 16.1378C89.5697 15.8632 89.4229 15.5341 89.4229 15.1506C89.4229 14.7623 89.5697 14.4332 89.8633 14.1634C90.1568 13.8887 90.5072 13.7514 90.9144 13.7514C91.3263 13.7514 91.6767 13.8887 91.9656 14.1634C92.2591 14.4332 92.4059 14.7623 92.4059 15.1506C92.4059 15.5341 92.2591 15.8632 91.9656 16.1378C91.6767 16.4077 91.3263 16.5426 90.9144 16.5426ZM94.8366 29V18.0909H97.3295V19.9091H97.4432C97.642 19.2794 97.983 18.794 98.4659 18.4531C98.9536 18.1075 99.5099 17.9347 100.135 17.9347C100.277 17.9347 100.436 17.9418 100.611 17.956C100.791 17.9654 100.94 17.982 101.058 18.0057V20.3707C100.949 20.3329 100.777 20.2997 100.54 20.2713C100.308 20.2382 100.083 20.2216 99.8651 20.2216C99.3963 20.2216 98.9749 20.3234 98.6009 20.527C98.2315 20.7259 97.9403 21.0028 97.7273 21.358C97.5142 21.7131 97.4077 22.1226 97.4077 22.5866V29H94.8366ZM107.841 29V14.4545H117.301V16.6634H110.476V20.6122H116.811V22.821H110.476V26.7912H117.358V29H107.841ZM123.924 29.1918C123.067 29.1918 122.3 28.9716 121.623 28.5312C120.946 28.0909 120.411 27.4517 120.018 26.6136C119.625 25.7756 119.428 24.7576 119.428 23.5597C119.428 22.3475 119.627 21.3248 120.025 20.4915C120.427 19.6534 120.969 19.0213 121.651 18.5952C122.333 18.1643 123.093 17.9489 123.931 17.9489C124.57 17.9489 125.096 18.0578 125.508 18.2756C125.92 18.4886 126.246 18.7467 126.488 19.0497C126.729 19.348 126.916 19.6297 127.049 19.8949H127.156V14.4545H129.734V29H127.205V27.2812H127.049C126.916 27.5464 126.725 27.8281 126.474 28.1264C126.223 28.42 125.891 28.6709 125.479 28.8793C125.067 29.0876 124.549 29.1918 123.924 29.1918ZM124.641 27.0824C125.186 27.0824 125.65 26.9356 126.033 26.642C126.417 26.3437 126.708 25.9295 126.907 25.3991C127.106 24.8688 127.205 24.2509 127.205 23.5455C127.205 22.84 127.106 22.2268 126.907 21.706C126.713 21.1851 126.424 20.7803 126.04 20.4915C125.662 20.2027 125.195 20.0582 124.641 20.0582C124.068 20.0582 123.59 20.2074 123.207 20.5057C122.823 20.804 122.534 21.2159 122.34 21.7415C122.146 22.267 122.049 22.8684 122.049 23.5455C122.049 24.2273 122.146 24.8357 122.34 25.3707C122.539 25.901 122.83 26.3201 123.214 26.6278C123.602 26.9309 124.078 27.0824 124.641 27.0824ZM139.426 24.4119V18.0909H141.998V29H139.505V27.0611H139.391C139.145 27.6719 138.74 28.1714 138.176 28.5597C137.618 28.9479 136.929 29.142 136.11 29.142C135.395 29.142 134.763 28.9834 134.213 28.6662C133.669 28.3442 133.243 27.8778 132.935 27.267C132.627 26.6515 132.473 25.9081 132.473 25.0369V18.0909H135.044V24.6392C135.044 25.3305 135.234 25.8797 135.613 26.2869C135.991 26.6941 136.489 26.8977 137.104 26.8977C137.483 26.8977 137.85 26.8054 138.205 26.6207C138.56 26.4361 138.851 26.1615 139.078 25.7969C139.31 25.4276 139.426 24.9659 139.426 24.4119Z" fill="black"/>
</svg>
